<?xml version="1.0" encoding="utf-8"?>
<!-- Generator: Adobe Illustrator 28.2.0, SVG Export Plug-In . SVG Version: 6.00 Build 0)  -->
<svg version="1.1" id="Layer_2" xmlns="http://www.w3.org/2000/svg" xmlns:xlink="http://www.w3.org/1999/xlink" x="0px" y="0px"
	 viewBox="0 0 128 128" style="enable-background:new 0 0 128 128;" xml:space="preserve">
<style type="text/css">
	.st0{fill:#56BC71;}
</style>
<path class="st0" d="M100.2,61.7c-1-25.2-11.4-44.9-36.2-44.9c-24.8,0-35.2,19.7-36.2,44.9c-7.9,7.4-7.5,21.9,1.2,33.2
	c4.3,5.6,9.9,9.4,15.6,11.1L56.5,119c4.2,4.6,11,4.6,15.1,0l11.9-13.2c5.6-1.7,11.2-5.5,15.5-11C107.6,83.6,108.1,69.2,100.2,61.7z
	 M63.8,30.2c8.7,0,15.8,3.8,15.8,8.4c0,4.6-7.1,8.4-15.8,8.4S48,43.3,48,38.6C48,34,55.1,30.2,63.8,30.2z M67.9,103.3
	c-0.9,0.3-2.1-0.7-2.7-2.3c-0.6-1.6-0.4-3.1,0.5-3.5c0.9-0.3,2.1,0.7,2.7,2.3C69,101.4,68.7,103,67.9,103.3z M62.9,101
	c-0.6,1.6-1.8,2.6-2.7,2.3c-0.9-0.3-1.1-1.9-0.5-3.5c0.6-1.6,1.8-2.6,2.7-2.3C63.3,97.9,63.5,99.4,62.9,101z M55.2,92.5
	c-4.7,3.7-12.4,1.7-17.2-4.5C33.3,82,33.2,74,38,70.3c4.7-3.7,12.4-1.7,17.2,4.5C59.9,80.9,59.9,88.9,55.2,92.5z M68,113.2h-8.3
	c-1.2,0-2-1.2-1.6-2.3c0.9-2.3,3.1-3.9,5.8-3.9s4.9,1.6,5.8,3.9C70.1,112,69.2,113.2,68,113.2z M90,88.1c-4.8,6.1-12.5,8.1-17.2,4.5
	c-4.7-3.7-4.7-11.6,0-17.8c4.8-6.1,12.5-8.1,17.2-4.5C94.8,74,94.7,82,90,88.1z"/>
<circle class="st0" cx="64" cy="38.6" r="7.2"/>
</svg>
